<?xml version="1.0" encoding="utf-8"?>
<!-- Generator: Moho 12.2 build 21774 -->
<!DOCTYPE svg PUBLIC "-//W3C//DTD SVG 1.1//EN" "http://www.w3.org/Graphics/SVG/1.1/DTD/svg11.dtd">
<svg version="1.1" id="Frame_0" xmlns="http://www.w3.org/2000/svg" xmlns:xlink="http://www.w3.org/1999/xlink" width="1400px" height="400px">
<g id="logo-fin.svg">
<path fill="#00354f" fill-rule="evenodd" stroke="none" d="M 579.803 268.969 C 553.620 268.967 527.444 268.967 501.275 268.969 C 501.269 249.639 501.269 230.311 501.275 210.984 C 521.245 210.983 541.222 210.983 561.205 210.984 C 562.946 210.984 564.605 210.308 565.834 209.079 C 567.063 207.850 567.759 206.192 567.759 204.471 C 567.753 199.513 567.753 194.556 567.759 189.601 C 567.759 185.996 564.810 183.067 561.184 183.067 C 541.201 183.067 521.225 183.066 501.254 183.067 C 501.248 167.623 501.248 152.179 501.254 136.737 C 526.502 136.736 551.757 136.737 577.018 136.737 C 578.758 136.737 580.438 136.040 581.646 134.832 C 582.875 133.623 583.571 131.944 583.571 130.224 C 583.565 125.259 583.565 120.296 583.571 115.333 C 583.571 111.728 580.622 108.800 576.997 108.800 C 541.871 108.799 506.751 108.799 471.637 108.800 C 471.631 171.494 471.631 234.189 471.637 296.887 C 507.686 296.884 543.741 296.883 579.803 296.887 C 581.544 296.887 583.203 296.211 584.432 294.982 C 585.661 293.753 586.357 292.094 586.357 290.353 C 586.350 285.394 586.350 280.437 586.357 275.483 C 586.377 271.898 583.407 268.969 579.803 268.969 Z"/>
<path fill="#00354f" fill-rule="evenodd" stroke="none" d="M 741.591 108.800 C 700.749 108.800 659.915 108.895 619.088 108.800 C 619.088 108.806 619.094 108.813 619.108 108.820 C 615.463 108.814 612.534 111.749 612.533 115.353 C 612.526 120.310 612.526 125.266 612.533 130.224 C 612.533 131.944 613.230 133.623 614.459 134.852 C 615.688 136.081 617.347 136.757 619.088 136.757 C 634.531 136.757 649.981 136.756 665.438 136.757 C 665.431 187.975 665.432 239.193 665.438 290.414 C 665.438 292.135 666.135 293.814 667.364 295.043 C 668.593 296.272 670.252 296.948 671.993 296.948 C 677.502 296.945 683.018 296.945 688.542 296.948 C 690.284 296.948 691.943 296.272 693.172 295.043 C 694.400 293.814 695.097 292.155 695.097 290.414 C 695.090 239.187 695.089 187.961 695.097 136.737 C 710.580 136.736 726.071 136.736 741.570 136.737 C 743.311 136.737 744.991 136.040 746.199 134.832 C 747.428 133.623 748.125 131.944 748.125 130.224 C 748.116 125.259 748.116 120.296 748.125 115.333 C 748.165 111.728 745.216 108.800 741.591 108.800 Z"/>
<path fill="#000000" fill-rule="evenodd" stroke="none" d="M 471.555 108.800 C 471.576 108.799 471.604 108.799 471.637 108.800 C 471.631 108.792 471.631 108.785 471.637 108.779 C 471.604 108.785 471.576 108.792 471.555 108.800 Z"/>
<path fill="#00354f" fill-rule="evenodd" stroke="none" d="M 414.635 196.298 C 406.711 192.364 398.791 188.432 390.876 184.501 C 382.970 180.835 376.231 176.636 370.558 171.638 C 365.028 166.784 362.262 160.742 362.262 153.921 C 362.262 148.268 364.167 143.414 367.752 139.481 C 371.336 135.549 376.190 133.583 382.130 133.583 C 391.859 133.583 400.133 138.683 406.954 148.821 C 408.941 151.771 413.038 152.446 416.007 150.501 C 420.324 147.680 424.646 144.861 428.973 142.042 C 430.427 141.079 431.430 139.604 431.799 137.884 C 432.167 136.184 431.819 134.422 430.857 132.968 C 419.141 115.558 402.878 106.792 382.150 106.792 C 368.304 106.792 356.547 111.441 346.921 120.884 C 337.417 130.203 332.666 142.083 332.666 156.174 C 332.666 165.227 334.653 173.236 338.606 180.179 C 342.559 187.123 347.454 192.509 353.373 196.298 C 359.882 200.011 366.395 203.726 372.913 207.441 C 379.374 210.635 385.839 213.830 392.310 217.027 C 404.312 222.393 413.160 231.323 413.160 242.855 C 413.160 251.129 410.395 257.929 404.988 263.193 C 399.581 268.437 392.719 271.058 384.281 271.058 C 367.649 271.058 355.770 260.469 348.539 239.270 C 347.167 235.317 342.395 233.699 338.831 235.932 C 334.512 238.661 330.197 241.391 325.886 244.124 C 323.428 245.681 322.281 248.692 323.101 251.498 C 326.808 264.893 333.670 275.974 343.460 284.577 C 354.398 294.142 367.998 298.996 384.220 298.996 C 401.506 298.996 415.762 293.753 426.699 283.266 C 437.780 272.656 443.331 258.872 443.331 241.810 C 443.330 231.057 440.545 221.881 434.871 214.139 C 429.259 206.479 422.541 200.497 414.635 196.298 Z"/>
<path fill="#00354f" fill-rule="evenodd" stroke="none" d="M 1351.261 202.996 C 1351.261 227.657 1343.744 245.620 1330.943 255.349 C 1318.142 265.057 1303.497 268.990 1285.944 268.990 C 1280.168 268.988 1274.405 268.988 1268.657 268.990 C 1268.643 224.904 1268.643 180.820 1268.657 136.737 C 1274.405 136.736 1280.168 136.736 1285.944 136.737 C 1303.497 136.737 1318.141 140.935 1330.943 150.521 C 1343.744 160.086 1351.261 178.192 1351.261 202.996 M 1381.595 202.874 C 1381.595 172.826 1373.177 149.600 1356.279 133.337 C 1339.382 116.951 1318.797 108.820 1294.526 108.820 C 1278.188 108.819 1261.864 108.820 1245.553 108.820 C 1241.907 108.820 1238.979 111.749 1238.978 115.353 C 1238.965 173.706 1238.963 232.059 1238.978 290.414 C 1238.978 292.135 1239.675 293.814 1240.904 295.043 C 1242.133 296.272 1243.791 296.948 1245.532 296.948 C 1261.843 296.946 1278.167 296.946 1294.506 296.948 C 1318.920 296.948 1339.504 288.817 1356.259 272.554 C 1373.157 256.148 1381.595 232.921 1381.595 202.874 Z"/>
<path fill="#00354f" fill-rule="evenodd" stroke="none" d="M 906.575 108.800 C 901.048 108.799 895.532 108.799 890.025 108.800 C 886.400 108.799 883.450 111.728 883.450 115.333 C 883.439 153.743 883.441 192.153 883.450 230.565 C 883.450 256.414 870.259 271.099 844.943 271.099 C 819.750 271.099 806.683 256.290 806.683 230.565 C 806.674 192.160 806.674 153.756 806.683 115.353 C 806.683 111.749 803.734 108.820 800.109 108.820 C 794.583 108.819 789.067 108.854 783.559 108.820 C 783.557 108.813 783.564 108.806 783.580 108.800 C 779.935 108.735 777.005 111.728 777.005 115.333 C 776.995 153.299 776.996 191.266 777.005 229.234 C 777.005 251.129 783.333 268.191 796.012 280.521 C 808.670 292.852 825.056 299.017 844.965 299.017 C 864.996 299.017 881.381 292.872 894.039 280.644 C 906.820 268.437 913.170 251.252 913.170 229.213 C 913.160 191.252 913.161 153.292 913.170 115.333 C 913.170 111.728 910.220 108.799 906.575 108.800 Z"/>
<path fill="#00354f" fill-rule="evenodd" stroke="none" d="M 1155.268 108.800 C 1145.889 108.799 1136.521 108.799 1127.167 108.800 C 1106.700 167.377 1086.245 225.955 1065.802 284.536 C 1064.819 287.403 1065.270 290.558 1067.031 293.016 C 1068.792 295.473 1071.639 296.928 1074.671 296.928 C 1080.374 296.925 1086.088 296.925 1091.815 296.928 C 1108.291 246.683 1124.778 196.441 1141.279 146.200 C 1157.713 196.441 1174.160 246.683 1190.620 296.928 C 1196.322 296.925 1202.036 296.925 1207.764 296.928 C 1210.795 296.948 1213.642 295.494 1215.403 293.016 C 1217.165 290.537 1217.636 287.403 1216.633 284.536 C 1196.168 225.954 1175.710 167.377 1155.268 108.800 Z"/>
<path fill="#00354f" fill-rule="evenodd" stroke="none" d="M 1044.829 164.531 C 1044.849 181.920 1034.690 192.100 1017.792 192.100 C 1004.632 192.099 991.482 192.099 978.343 192.100 C 978.333 173.637 978.333 155.176 978.343 136.716 C 991.482 136.715 1004.632 136.715 1017.792 136.716 C 1034.670 136.716 1044.829 146.814 1044.829 164.531 M 1017.792 192.100 C 1017.792 192.100 1017.792 192.100 1017.792 192.100 M 1075.060 164.552 C 1075.060 148.146 1069.918 134.771 1059.493 124.407 C 1049.211 114.043 1034.833 108.800 1016.481 108.800 C 993.865 108.799 971.260 108.799 948.665 108.800 C 948.655 169.323 948.655 229.847 948.665 290.373 C 948.686 293.998 951.615 296.907 955.240 296.907 C 960.746 296.905 966.262 296.905 971.789 296.907 C 973.530 296.907 975.189 296.231 976.418 295.002 C 977.647 293.773 978.343 292.114 978.343 290.394 C 978.332 266.940 978.333 243.488 978.343 220.038 C 991.038 220.036 1003.744 220.036 1016.460 220.038 C 1034.792 220.038 1049.027 214.897 1059.473 204.553 C 1069.898 194.210 1075.060 180.815 1075.060 164.552 Z"/>
<path fill="#21b5c4" fill-rule="evenodd" stroke="none" d="M 180.484 98.456 C 169.469 127.164 158.457 155.873 147.447 184.583 C 164.485 229.027 181.526 273.473 198.569 317.921 C 212.535 317.919 226.504 317.919 240.476 317.921 C 240.500 317.919 240.527 317.919 240.558 317.921 C 252.560 317.921 261.265 306.554 258.070 295.043 C 232.205 229.512 206.343 163.984 180.484 98.456 Z"/>
<path fill="#00354f" fill-rule="evenodd" stroke="none" d="M 169.833 74.123 C 148.256 74.123 126.682 74.123 105.109 74.123 C 104.821 74.123 104.534 74.123 104.249 74.123 C 75.190 147.762 46.133 221.401 17.078 295.043 C 13.862 306.554 22.567 317.921 34.590 317.921 C 48.496 317.919 62.403 317.919 76.312 317.921 C 76.372 317.919 76.433 317.919 76.496 317.921 C 96.847 264.871 117.199 211.823 137.554 158.776 C 148.373 130.564 159.194 102.354 170.018 74.144 C 169.954 74.143 169.892 74.143 169.833 74.144 C 169.831 74.137 169.831 74.130 169.833 74.123 Z"/>
</g>
</svg>
