<svg xmlns="http://www.w3.org/2000/svg" width="150" height="150"><path fill="#171717" fill-rule="evenodd" d="M84.206 108.492c3.198-1.029 12.779-3.693 22.212.755 17.437 8.223 23.914 27.636 26.544 33.039 1.15 2.364 1.391 8.658 1.392 8.659l-37.752-.113c0-.001-1.917-4.927-4.451-7.627-3.956-4.214-10.177-4.305-12.921-14.402-1.665-6.127 2.659-19.564 4.976-20.311Z"/><path fill="none" d="M84.206 108.492c3.198-1.029 12.779-3.693 22.212.755 17.437 8.223 23.914 27.636 26.544 33.039 1.15 2.364 1.391 8.658 1.392 8.659l-37.752-.113c0-.001-1.917-4.927-4.451-7.627-3.956-4.214-10.177-4.305-12.921-14.402"/><path fill="#fec39b" fill-rule="evenodd" d="m64.414 100.524 10.64-21.552 14.161 3.481-2.984 20.082c-.001 0-3.194 1.752-10.595 1.147-8.095-.661-11.22-3.158-11.222-3.158Z"/><path fill="#1c1c1c" fill-rule="evenodd" d="M32.167 144.596c-2.793-5.828 4.563-40.9 14.154-47.888 9.137-6.657 49.409 2.011 57.67 11.275 6.111 6.852 4.617 42.836 4.62 42.84-.001 0-66.079.034-66.081.033-.001 0-9.68-4.833-10.363-6.26Z"/><path fill="#d89b72" fill-rule="evenodd" d="M87.584 84.902c-.002.001-4.273 13.153-12.126 9.626-5.644-2.535-1.805-11-1.805-11.001.001.001-.002 4.23 4.462 5.521 6.439 1.862 9.468-4.146 9.469-4.146Z"/><path fill="#f4f6f8" fill-rule="evenodd" d="M87.225 117.328c-.178-.551.568-1.258.568-1.258s3.967-5.034 4.241-5.311c.03-.03.136-.259.547-.472.272-.14.639-.075.678-.075.173.004 2.962.56 2.962.56l-5.88 7.762-1.643-.429s-1.258-.112-1.473-.777ZM98.689 119.926c.408-.401.124-1.39.124-1.39l-1.883-7.428-2.441 3.197.726 5.293 1.713.357s1.239.485 1.761-.029Z"/><path fill="#18b8cf" fill-rule="evenodd" d="M65.812 141.686c-25.255-3.118-31.951 1.437-31.954 1.437l.129 7.758 62.302-.091c-.003-.001-5.389-6.006-30.477-9.104Z"/><path fill="#fec39b" fill-rule="evenodd" d="M86.045 67.52c-3.665-1.192-8.437 1.514-11.358 8.696-3.207 7.889-.004 14.47 2.509 15.456 2.602 1.022 10.095-1.686 12.771-10.112 2.407-7.576-.17-12.821-3.922-14.04Z"/><path fill="#1ab6c5" fill-rule="evenodd" d="M79.196 69.467c.001 0 3.565-3.811 7.297-1.944 7.653 3.827 3.389 14.925 3.388 14.926l-.802-.139c0-.001 1.929-4.329.662-4.214-.322.028-.622.882-.622.882s-.882 3.545-2.62 6.853c-1.365 2.599-3.253 4.793-3.253 4.793-.001 0-4.303 2.477-6.852 1.041-3.56-2.006-3.279-8.709-3.155-9.07.041-.118.527-3.006 4.82-2.389 6.422.923 4.76 5.619 5.572 5.8 2.386.531 4.763-8.072 5.028-10.709.17-1.69.235-3.354.235-3.354 0-.001-1.408-1.265-3.752-1.966-3.298-.987-5.945-.51-5.946-.51Z"/><path fill="none" stroke="#000" stroke-linecap="round" stroke-linejoin="round" d="M81.464 73.004s-.894-.345-2.933-.684c-1.82-.303-2.673-.274-2.674-.274 0 0-.859 2.056-.399 2.745.789 1.185 3.737 1.399 4.794.799.616-.349 1.212-2.585 1.212-2.586ZM89.419 74.609s-.965-.391-3.17-.855c-2.078-.438-3.057-.47-3.057-.47s-.882 2.319-.525 2.899c.649 1.057 4.17 1.693 5.38 1.056.651-.342 1.372-2.629 1.372-2.63ZM83.041 73.582s.045-.398-.658-.538c-.794-.157-.611.193-.916.289M89.488 74.611s.554 1.317 1.029 2.582c.355.947.695 1.963.695 1.964"/><path fill="#1ab6c5" fill-rule="evenodd" d="M89.369 72.076c0-.001-1.499-1.212-2.709-1.747-6.109-2.702-13.393-1.3-15.939-3.432-.394-.33-2.235-3.135-.265-4.488 1.861-1.279 3.331-.097 3.338-.1.029-.016-.17-2.183 2.132-2.74 2.336-.565 3.242 1.472 3.26 1.474.021.002 1.681-3.306 4.214-1.072 1.421 1.253-.742 3.903.435 5.03 1.736 1.663 3.721.283 5.868 3.654 1.093 1.717.847 3.395.806 3.433-.012.012-1.14-.012-1.14-.012Z"/><path fill="none" d="M89.369 72.076c0-.001-1.499-1.212-2.709-1.747-6.109-2.702-13.393-1.3-15.939-3.432-.394-.33-2.235-3.135-.265-4.488 1.861-1.279 3.331-.097 3.338-.1.029-.016-.17-2.183 2.132-2.74 2.336-.565 3.242 1.472 3.26 1.474.021.002 1.681-3.306 4.214-1.072 1.421 1.253-.742 3.903.435 5.03 1.736 1.663 3.721.283 5.868 3.654 1.093 1.717.847 3.395.806 3.433"/><path fill="#17a8bd" fill-rule="evenodd" d="m31.971 26.535-8.368 17.507.38 5.005 35.274-.548 7.125-34.205.805-4.494c0-.001.672-1.968-.834-5.1-.881-1.832-1.992-2.372-1.992-2.372l-8.062 12.054-2.701 9.57c-.001-.001-.641-1.97-2.694-2.082-3.135-.172-4.184 2.977-4.397 2.972-.161-.003-.769-2.059-3.235-2.279-3.452-.309-4.891 2.551-5.114 2.523-.109-.013-.561-1.554-2.153-1.602-2.918-.088-4.033 3.051-4.034 3.051Z"/><path fill="#fec39b" fill-rule="evenodd" d="M36.081 50.596c-2.457 6.868-4.841 12.965-4.761 13.158.039.093 1.397 3.163 5.772 3.506 3.574.281 5.195-1.856 5.305-1.98.306-.344.78-8.343 1.599-14.934.741-5.97 1.878-13.314 1.878-13.315 0-.001 3.565-3.802 2.391-4.231-.453-.165-1.083.8-1.598 1.063a8.684 8.684 0 0 1-.758.297l-.416-1.551s-.019-.893.011-1.078c.055-.331 1.732-1.437.64-1.848 0 0-.504.302-.585.385-1.063 1.086-1.183 1.455-1.204 1.471-.027.021-2.153.845-2.304 1.039-.105.135-.215 1.157-.313 1.652-.052.26-.187.602-.177.865.001.014-2.56 7.34-5.48 15.501Z"/><path fill="#1c1c1c" fill-rule="evenodd" d="M33.834 130.282c5.839-1.495 22.695-13.57 23.808-31.718.374-6.096-5.213-11.886-5.214-11.887 0-.002 1.879-19.488-3.883-24.091-5.421-4.331-14.074-6.511-23.439.598-7.54 5.723-5.314 26.828-4.548 38.63.283 4.346 2.69 12.943 3.139 14.197 2.262 6.321 8.08 14.798 10.137 14.271Z"/><path fill="none" d="M33.834 130.282c5.839-1.495 22.695-13.57 23.808-31.718.374-6.096-5.213-11.886-5.214-11.887 0-.002 1.879-19.488-3.883-24.091-5.421-4.331-14.074-6.511-23.439.598-7.54 5.723-5.314 26.828-4.548 38.63.283 4.346 2.69 12.943 3.139 14.197M45.504 31.531c.055-.331 1.732-1.437.64-1.848"/><path fill="#fec39b" fill-rule="evenodd" d="M42.514 33.032s1.04-2.253 1.753-3.045c.285-.316 1.04-.919 1.127-.883.215.088.169.297.176.393.017.264-.403 1.086-.416 1.117-.023.059-.926 2.086-.926 2.087l-1.714.331Z"/><path fill="#fec39b" fill-rule="evenodd" d="M41.848 33.814c0-.001-.279-1.735.062-2.377.324-.61 1.728-1.46 1.879-1.42.313.083.364.337.377.47.035.337-.846 1.249-.86 1.289-.018.048-.177 1.814-.177 1.814l-1.281.224Z"/><path fill="#fec39b" fill-rule="evenodd" d="M41.785 34.112s-1.254-1.489-1.063-2.204c.15-.563 1.446-1.288 1.574-1.252.359.102.399.422.383.576-.027.278-.966.815-.971.85-.007.05 1.163 1.422 1.163 1.422l-1.086.608Z"/><path fill="#e6a072" fill-rule="evenodd" d="M43.803 35.932s.636-.752.584-1.119c-.068-.484-1.192-1.152-1.194-1.15-.002.001.324.801.416 1.159.084.328.194 1.11.194 1.11Z"/><path fill="#c88e68" fill-rule="evenodd" d="M37.342 47.101c.001-.001.906-2.706 4.446-2.211 2.632.369 2.682 2.359 2.683 2.359l.449-3.482-6.412.087-1.166 3.247Z"/><path fill="#138090" fill-rule="evenodd" d="m44.419 47.255.287-2.202 13.156.062.163 2.268-13.606-.128ZM37.279 47.252l.654-2.039-12.913.212.003 2.178 12.256-.351Z"/><path fill="#18b8cf" fill-rule="evenodd" d="m31.599 21.746-7.963 22.336 35.135-.541 7.111-33.939c0-.001 1.862-6.657-2.399-7.751-5.539-1.422-7.645 7.836-7.645 7.837l-2.695 9.496s-.637-1.954-2.683-2.066c-3.123-.17-4.168 2.954-4.38 2.949-.161-.003-.766-2.043-3.222-2.262-3.439-.306-4.873 2.531-5.096 2.504-.108-.014-.558-1.543-2.144-1.591-2.907-.087-4.019 3.028-4.019 3.028Z"/><path fill="#18b8cf" fill-rule="evenodd" stroke="#f4f6f8" stroke-linecap="round" stroke-linejoin="round" d="m33.222 23.667-5.984 17.517 29.898-.022 5.8-28.37c0-.001 2.786-8.057-.542-8.792-3.278-.724-4.877 7.44-4.877 7.44l-4.403 13.919c0-.001-.676-4.8-3.065-5.07-2.618-.296-4.727 4.738-4.727 4.738s.543-3.915-2.089-4.607c-3.36-.883-5.479 4.003-5.48 4.003 0 0-.228-2.601-2.359-2.647-1.671-.036-2.172 1.891-2.172 1.891Z"/><path fill="#f4f6f8" fill-rule="evenodd" d="m47.402 39.221-.301-5.15 3.552-2.827-4.377-.998-1.525-3.349-2.552 3.14-4.537.543 2.506 3.107-1.944 4.952 4.986-2.251 4.192 2.833Z"/><path fill="#104e66" fill-rule="evenodd" d="M51.721 86.967c.004.009 1.704 1.655 2.987 3.704 1.397 2.232 2.204 4.708 2.204 4.709.003 0 2.507-1.594 21.215 2.704 18.859 4.332 25.403 10.64 25.405 10.642.002.001 6.954.958 16.418 11.53 12.719 14.207 12.856 24.109 12.857 24.107-.002.003-10.876-18.666-15.389-23.148-11.455-11.373-12.584-10.559-12.598-10.541-.002.003.244 1.475.386 2.349.177 1.095.473 2.949.47 2.952-.029.041-13.046-10.394-31.184-15.801-10.327-3.079-16.03-.108-19.598-2.545-1.508-1.031-4.374-6.437-4.483-6.945-.122-.563 2.489-20.525-7.65-26.815-6.409-3.976-17.86 1.542-17.971 1.474-.071-.043 3.369-5.019 10.924-5.773 8.563-.854 13.14 4.133 13.14 4.133s2.101 4.512 2.666 7.478c1.107 5.818.192 15.765.201 15.786Z"/><path fill="#090909" fill-rule="evenodd" d="M114.409 150.867c-.001-.001.389-4.943-.834-10.509-1.678-7.635-5.102-13.466-5.102-13.467 0 .001.51 6.787.669 13.609a236.236 236.236 0 0 1-.012 10.296c-.004.014 5.278.071 5.279.071Z"/><path fill="#1497aa" fill-rule="evenodd" d="M64.681 144.592c-20.56-2.343-30.104-1.973-30.107-1.974.003 0 9.747-3.637 30.258-1.119 22.315 2.74 31.675 9.241 31.677 9.244-.004-.002-8.775-3.524-31.828-6.151Z"/><path fill="#ffd6bb" fill-rule="evenodd" d="M41.67 44.719c-.015.007-1.267.047-1.267.047l-4.339 13.331s1.615-.216 2.308-.202c.894.018 2.943.396 2.944.396 0-.002 2.322-11.64 1.805-12.558-.072-.128-1.429-1.01-1.451-1.014Z"/><path fill="#1fdeef" fill-rule="evenodd" d="M74.282 81.39c-.377-.014-1.519 1.516-.896 4.5.973 4.657 3.909 6.235 4.331 5.748.373-.428-2.319-1.846-3.334-5.404-.8-2.805.298-4.83-.101-4.844ZM72.608 62.717c.027-.455-1.049-.883-1.779-.403-1.163.764-.329 2.838-.127 2.828.149-.007-.041-1.357.647-2 .417-.39 1.24-.094 1.259-.425ZM77.423 60.846c.167-.574-1.238-1.385-2.243-.833-1.142.627-.576 2.609-.387 2.618.132.006.089-1.234.793-1.687.664-.427 1.708.342 1.837-.098ZM83.233 61.484c.56-.432-.402-2.157-1.956-1.958-1.237.159-1.294 1.733-1.176 1.83.088.072.718-.776 1.453-.772.829.006 1.296 1.196 1.679.9Z"/><path fill="#090909" fill-rule="evenodd" d="M32.974 129.711c-.002-.005-1.649-.916-1.994-2.492-2.246-10.274 8.31-19.65 8.311-19.652-.001.001-3.76 7.41-4.011 15.286-.092 2.866.891 5.651.889 5.659-.002.013-3.583 8.268-3.583 8.268s.391-7.06.388-7.069Z"/><path fill="#fff" fill-rule="evenodd" d="M86.834 66.496c-.434-.149-.665-.15-.681-.104-.017.046.164.187.599.337.434.149.664.15.681.103.016-.046-.165-.187-.599-.336ZM71.15 62.243c-.571.185-.719.551-.652.607.052.044.168-.178.6-.339.566-.21.9-.084.892-.171-.007-.081-.304-.269-.84-.097ZM82.443 59.604c.807.293.979.837.884.918-.082.07-.219-.372-.917-.614-.997-.347-1.573.053-1.583-.098-.011-.155.595-.576 1.616-.206ZM98.836 105.519c-.171.199.403 1.252 2.288 2.366 1 .59 1.578.618 1.659.504.097-.136-.302-.705-1.407-1.568-1.504-1.174-2.391-1.474-2.54-1.302ZM53.595 90.159c-.18.118.338.817 1.333 2.249.705 1.014 1.014 1.5 1.158 1.447.187-.069.076-.948-.849-2.272-.829-1.187-1.492-1.522-1.642-1.424ZM26.775 63.279c.062.056.318-.165.912-.56.989-.656 1.507-.92 1.442-1.041-.066-.123-.749-.119-1.682.624-.625.497-.742.915-.672.977ZM29.608 61.492c.035.041.235-.036.657-.229.62-.284.902-.439.882-.516-.022-.085-.484-.3-1.123.1-.44.275-.456.599-.416.645Z"/></svg>