<svg xmlns="http://www.w3.org/2000/svg" width="350" height="250"><path fill="#002654" fill-rule="evenodd" d="m-433.679 134.934-.018 224.273 380.419-.004.026-224.269c-.001-.002.07-8.897-9.309-17.741-8.931-8.421-17.356-7.914-17.358-7.915l-327.093.09c-.002 0-8.426-.56-17.358 7.825-9.399 8.823-9.308 17.739-9.309 17.741Z"/><path fill="none" d="m-433.679 134.934-.018 224.273 380.419-.004.026-224.269c-.001-.002.07-8.897-9.309-17.741-8.931-8.421-17.356-7.914-17.358-7.915l-327.093.09c-.002 0-8.426-.56-17.358 7.825-9.399 8.823-9.308 17.739-9.309 17.741m-.018 224.273"/><path fill="#fff" fill-rule="evenodd" d="M-432.941 140.658h378.713v24.531l-378.713-.05v-24.481Z"/><path fill="#dfeaea" fill-rule="evenodd" d="M-424.175 118.108c8.188-8.236 18.014-8.127 18.016-8.128H-80.66c.002.001 8.654-.836 17.85 8.139 9.21 8.99 8.581 17.676 8.582 17.678v4.019l-378.713.181s-.014-4.533 0-4.597c.056-.269-.146-8.329 8.766-17.292Z"/><path fill="#fff" fill-rule="evenodd" d="M9.109 279.093c5.19-4.778 10.924-5.046 10.925-5.046l328.15.352.213 246.408-345.049-.068V289.214c.001-.001.739-5.497 5.761-10.121Z"/><path fill="#21b8c6" fill-rule="evenodd" d="M-102.732 17.612a6.752 6.752 0 0 1 6.763-6.762 6.752 6.752 0 0 1 6.762 6.762 6.752 6.752 0 0 1-6.762 6.762 6.752 6.752 0 0 1-6.763-6.762m1.206 0a5.548 5.548 0 0 1 5.557-5.557 5.548 5.548 0 0 1 5.556 5.557 5.548 5.548 0 0 1-5.556 5.557 5.548 5.548 0 0 1-5.557-5.557Z"/><path fill="#f975a1" fill-rule="evenodd" d="M-80.656 17.612a6.751 6.751 0 0 1 6.762-6.762 6.751 6.751 0 0 1 6.762 6.762 6.751 6.751 0 0 1-6.762 6.762 6.751 6.751 0 0 1-6.762-6.762m1.205 0a5.549 5.549 0 0 1 5.557-5.557 5.548 5.548 0 0 1 5.557 5.557 5.548 5.548 0 0 1-5.557 5.557 5.549 5.549 0 0 1-5.557-5.557Z"/><path fill="#f7d27e" fill-rule="evenodd" d="M-124.958 17.612a6.752 6.752 0 0 1 6.763-6.762 6.752 6.752 0 0 1 6.762 6.762 6.752 6.752 0 0 1-6.762 6.762 6.752 6.752 0 0 1-6.763-6.762m1.206 0a5.548 5.548 0 0 1 5.557-5.557 5.548 5.548 0 0 1 5.556 5.557 5.548 5.548 0 0 1-5.556 5.557 5.548 5.548 0 0 1-5.557-5.557Z"/><path fill="#002654" fill-rule="evenodd" d="M-81.663 38.664h21.171s.45-.017.46.439c.011.474-.46.473-.46.473h-21.171s-.387.061-.444-.353c-.072-.521.444-.559.444-.559ZM-81.663 45.139h21.171s.45-.005.46.465c.011.487-.46.5-.46.5h-21.171s-.386.05-.444-.374c-.074-.539.444-.591.444-.591ZM-81.663 51.756h21.171s.45-.029.46.417c.01.461-.46.448-.46.448h-21.171s-.388.071-.444-.335c-.069-.504.444-.53.444-.53ZM-403.858 45.474a8.957 8.957 0 0 1 8.971-8.971 8.958 8.958 0 0 1 8.971 8.971 8.957 8.957 0 0 1-8.971 8.971 8.957 8.957 0 0 1-8.971-8.971m.846 0a8.113 8.113 0 0 1 8.125-8.125 8.113 8.113 0 0 1 8.125 8.125 8.113 8.113 0 0 1-8.125 8.125 8.112 8.112 0 0 1-8.125-8.125Z"/><path fill="none" d="M-160.53 16.732c.029 6.654-6.28 6.299-6.281 6.3-.013-.007-137.985.002-137.998.009-.001 0-6.203.057-6.167-6.309.035-6.305 6.166-6.191 6.167-6.191.013.007 138.054.035 138.068.028.001 0 6.182-.382 6.211 6.163"/><path fill="#002654" fill-rule="evenodd" d="M-166.923 23.851c-.013-.007-137.804-.007-137.818 0-.001 0-7.014.125-7.014-7.051s7.013-7.051 7.014-7.051c.014.007 137.805.007 137.818 0 .001 0 7.172-.472 7.172 7.051s-7.171 7.051-7.172 7.051Z"/><path fill="none" d="M-159.751 16.8c0 7.523-7.171 7.051-7.172 7.051-.013-.007-137.804-.007-137.818 0-.001 0-7.014.125-7.014-7.051s7.013-7.051 7.014-7.051c.014.007 137.805.007 137.818 0 .001 0 7.172-.472 7.172 7.051"/><path fill="#fff" fill-rule="evenodd" d="M-166.811 23.032c-.013-.007-137.985.002-137.998.009-.001 0-6.203.057-6.167-6.309.035-6.305 6.166-6.191 6.167-6.191.013.007 138.054.035 138.068.028.001 0 6.182-.382 6.211 6.163.029 6.654-6.28 6.299-6.281 6.3Z"/><path fill="none" d="M2.5 20.95c.001-.001-.655-7.123 5.023-13.132 5.104-5.402 11.483-5.276 11.485-5.277l311.82-.157c.001 0 7.246-.846 12.509 4.437 5.184 5.204 4.341 12.331 4.342 12.333V232.46c-.001.001.431 6.117-4.354 10.947-4.982 5.027-11.368 4.597-11.369 4.597l-313.559.199c-.001-.001-6.785-.176-12.04-5.984-4.426-4.893-4.142-10.54-4.143-10.541L2.5 20.95"/><path fill="#fff" fill-rule="evenodd" d="M7.523 7.818c5.104-5.402 11.483-5.276 11.485-5.277l311.82-.157c.001 0 7.246-.846 12.509 4.437 5.184 5.204 4.341 12.331 4.342 12.333V232.46c-.001.001.431 6.117-4.354 10.947-4.982 5.027-11.368 4.597-11.369 4.597l-313.559.199c-.001-.001-6.785-.176-12.04-5.984-4.426-4.893-4.142-10.54-4.143-10.541L2.5 20.95c.001-.001-.655-7.123 5.023-13.132Z"/><path fill="#43b6c5" fill-rule="evenodd" d="M85.195 30.259c24.68 0 44.59 19.91 44.59 44.591s-19.91 44.59-44.59 44.591c-24.681 0-44.591-19.91-44.591-44.591s19.91-44.591 44.591-44.591Z"/><path fill="none" d="m260.319 132.71 87.36-61.091V232.46c-.001.001.431 6.117-4.354 10.947-4.982 5.027-11.368 4.597-11.369 4.597l-313.559.199c-.001-.001-6.785-.176-12.04-5.984-4.426-4.893-4.142-10.54-4.143-10.541l.286-17.06L211.703 88.135l48.616 44.575"/><path fill="#43b6c5" fill-rule="evenodd" d="M347.679 71.619V232.46c-.001.001.431 6.117-4.354 10.947-4.982 5.027-11.368 4.597-11.369 4.597l-313.559.199c-.001-.001-6.785-.176-12.04-5.984-4.426-4.893-4.142-10.54-4.143-10.541l.286-17.06L211.703 88.135l48.616 44.575 87.36-61.091ZM617.628 150.408c2.122-2.068 1.924-5.085 1.924-5.085-.007-.005-.003-79.346 0-79.354 0 0 .216-2.297-1.658-4.139-2.211-2.171-4.942-1.795-4.942-1.795-.009.005-88.06.005-88.068 0-.001 0-2.947-.304-4.931 1.595-1.781 1.704-1.67 4.339-1.67 4.339.003.008.003 79.345 0 79.354 0 .001-.249 3.056 1.393 4.839 1.809 1.966 5.207 1.92 5.208 1.92.008-.004 88.059-.004 88.068 0 0 0 2.737.214 4.676-1.674Z"/><path fill="none" d="M617.628 150.408c2.122-2.068 1.924-5.085 1.924-5.085-.007-.005-.003-79.346 0-79.354 0 0 .216-2.297-1.658-4.139-2.211-2.171-4.942-1.795-4.942-1.795-.009.005-88.06.005-88.068 0-.001 0-2.947-.304-4.931 1.595-1.781 1.704-1.67 4.339-1.67 4.339.003.008.003 79.345 0 79.354 0 .001-.249 3.056 1.393 4.839 1.809 1.966 5.207 1.92 5.208 1.92.008-.004 88.059-.004 88.068 0 0 0 2.737.214 4.676-1.674m1.847-5.085h.077"/><path fill="#43b6c5" fill-rule="evenodd" d="M735.794 150.408c2.122-2.068 1.924-5.085 1.924-5.085-.007-.005-.003-79.346 0-79.354 0 0 .216-2.298-1.659-4.139-2.21-2.171-4.941-1.795-4.942-1.795-.008.005-88.059.005-88.067 0-.001 0-2.947-.304-4.931 1.595-1.781 1.704-1.67 4.339-1.67 4.339.003.008.002 79.345 0 79.354 0 .001-.249 3.056 1.393 4.839 1.809 1.966 5.207 1.92 5.208 1.92.008-.004 88.059-.004 88.067 0 .001 0 2.738.214 4.677-1.674Z"/><path fill="none" d="M735.794 150.408c2.122-2.068 1.924-5.085 1.924-5.085-.007-.005-.003-79.346 0-79.354 0 0 .216-2.298-1.659-4.139-2.21-2.171-4.941-1.795-4.942-1.795-.008.005-88.059.005-88.067 0-.001 0-2.947-.304-4.931 1.595-1.781 1.704-1.67 4.339-1.67 4.339.003.008.002 79.345 0 79.354 0 .001-.249 3.056 1.393 4.839 1.809 1.966 5.207 1.92 5.208 1.92.008-.004 88.059-.004 88.067 0 .001 0 2.738.214 4.677-1.674m1.847-5.085h.077"/><path fill="#43b6c5" fill-rule="evenodd" d="M853.029 150.408c2.122-2.068 1.924-5.085 1.924-5.085-.007-.005-.004-79.346 0-79.354 0 0 .216-2.298-1.659-4.139-2.21-2.171-4.941-1.795-4.942-1.795-.009.005-88.059.005-88.068 0 0 0-2.946-.304-4.93 1.595-1.781 1.704-1.671 4.339-1.67 4.339.003.008.002 79.345 0 79.354-.001.001-.249 3.056 1.393 4.839 1.809 1.966 5.207 1.92 5.207 1.92.009-.004 88.059-.004 88.068 0 .001 0 2.737.214 4.677-1.674Z"/><path fill="none" d="M853.029 150.408c2.122-2.068 1.924-5.085 1.924-5.085-.007-.005-.004-79.346 0-79.354 0 0 .216-2.298-1.659-4.139-2.21-2.171-4.941-1.795-4.942-1.795-.009.005-88.059.005-88.068 0 0 0-2.946-.304-4.93 1.595-1.781 1.704-1.671 4.339-1.67 4.339.003.008.002 79.345 0 79.354-.001.001-.249 3.056 1.393 4.839 1.809 1.966 5.207 1.92 5.207 1.92.009-.004 88.059-.004 88.068 0 .001 0 2.737.214 4.677-1.674m1.846-5.085h.078"/><path fill="#002654" fill-rule="evenodd" d="M754.424 34.174s-.217-1.636 1.07-2.986c1.139-1.195 2.583-1.101 2.583-1.101h92.586s1.594-.391 2.867.867c1.261 1.246.896 2.829.896 2.83v14.95c0 .001.163 1.519-1.017 2.673-1.056 1.032-2.403.88-2.404.88h-92.914s-1.635.224-2.855-1.066c-1.049-1.111-.812-2.495-.812-2.495V34.174m-.98-.565c0-.001-.049-1.585 1.243-2.964 1.25-1.334 2.779-1.393 2.779-1.393h93.978s1.647-.115 2.981 1.296c1.162 1.229 1.011 2.644 1.011 2.644v15.78s.048 1.592-1.22 2.868c-1.068 1.074-2.395 1.073-2.395 1.073h-94.339s-1.528.04-2.777-1.206c-1.31-1.307-1.261-2.915-1.261-2.915V33.609Z"/><path fill="#002654" fill-rule="evenodd" d="M760.613 44.408h87.341s.45-.049.459.378c.01.441-.459.407-.459.407h-87.341s-.391.089-.444-.303c-.065-.478.444-.482.444-.482ZM760.613 37.028h87.341s.45-.049.459.378c.01.441-.459.407-.459.407h-87.341s-.391.089-.444-.304c-.065-.477.444-.481.444-.481ZM519.611 34.174c.001 0-.105-1.643 1.241-2.986 1.168-1.166 2.582-1.101 2.582-1.101h209.784s1.55-.344 2.867.867c1.337 1.23 1.116 2.829 1.116 2.83v14.95c0 .001.02 1.529-1.236 2.673-1.093.994-2.404.88-2.405.88H523.449c-.001 0-1.596.185-2.855-1.066-1.108-1.101-.982-2.495-.983-2.495V34.174m-.81-.565c.001-.001-.049-1.585 1.243-2.964 1.25-1.334 2.78-1.393 2.78-1.393h211.175s1.648-.115 2.981 1.296c1.162 1.229 1.011 2.644 1.011 2.644v15.78s.048 1.592-1.22 2.868c-1.068 1.074-2.395 1.073-2.395 1.073H522.84s-1.528.04-2.777-1.206c-1.31-1.307-1.261-2.915-1.262-2.915V33.609Z"/><path fill="#002654" fill-rule="evenodd" d="M525.97 44.408h204.539s.45-.049.459.378c.01.441-.459.407-.459.407H525.97s-.39.089-.444-.303c-.065-.478.444-.482.444-.482ZM525.97 37.028h204.539s.45-.049.459.378c.01.441-.459.407-.459.407H525.97s-.39.089-.444-.304c-.065-.477.444-.481.444-.481ZM504.072 383.06c.001-.001-.648-7.049 4.971-12.996 5.051-5.346 11.364-5.221 11.365-5.222l308.585-.155c.001 0 7.171-.837 12.379 4.391 5.13 5.15 4.296 12.203 4.297 12.204v211.093c-.001.001.427 6.054-4.309 10.833-4.93 4.975-11.25 4.549-11.251 4.55l-310.305.196c-.001 0-6.715-.174-11.915-5.922-4.38-4.842-4.099-10.43-4.1-10.431l.283-208.541m-4.226-2.263c.001-.001-.223-7.182 5.633-13.432 5.666-6.047 12.598-6.314 12.599-6.314h313.578c.002 0 7.469-.525 13.514 5.873 5.265 5.571 4.58 11.985 4.581 11.987v214.228c-.001.002.216 7.217-5.531 12.998-4.84 4.868-10.853 4.867-10.855 4.867H517.413c-.001 0-6.518-.047-11.85-5.467-5.882-5.98-5.716-13.214-5.717-13.215V380.797ZM-611.904-73.653c0-25.59 20.644-46.233 46.234-46.233 25.59-.001 46.234 20.643 46.234 46.233 0 25.59-20.644 46.233-46.234 46.233-25.59 0-46.234-20.643-46.234-46.233m3.981 0c0-23.387 18.866-42.253 42.252-42.253 23.387 0 42.253 18.866 42.253 42.253 0 23.386-18.866 42.252-42.253 42.252-23.386 0-42.251-18.866-42.252-42.252ZM-647.589 66.496l208.554-124.417 48.543 43.675 88.209-61.743v-4.691l-87.799 61.334-48.406-43.986-209.101 125.343v4.485ZM588.176 164.104s-.216-1.636 1.071-2.986c1.139-1.195 2.582-1.101 2.582-1.101h118.515s1.594-.391 2.867.866c1.261 1.247.896 2.83.896 2.83v37.438s.128 1.497-1.056 2.613c-.915.862-2.048.741-2.048.741l-119.363.053s-1.485.048-2.622-1.182c-.944-1.021-.842-2.233-.842-2.233v-37.039m-.979-.566s-.05-1.584 1.242-2.963c1.25-1.334 2.78-1.393 2.78-1.393h119.906s1.648-.116 2.981 1.295c1.162 1.23 1.011 2.645 1.011 2.645v38.267s.048 1.592-1.22 2.867c-1.068 1.074-2.395 1.074-2.395 1.074H591.235s-1.528.039-2.777-1.206c-1.31-1.307-1.261-2.915-1.261-2.916v-37.67Z"/><path fill="#002654" fill-rule="evenodd" d="M594.129 174.101h114.462c0 .001.45-.049.46.378.009.441-.46.407-.46.408H594.129c0-.001-.391.088-.444-.304-.065-.478.444-.481.444-.482ZM594.129 166.721h114.462s.45-.049.46.378c.009.441-.46.407-.46.407H594.129s-.391.089-.444-.304c-.065-.477.444-.481.444-.481ZM721.167 164.104s-.217-1.636 1.07-2.986c1.139-1.195 2.583-1.101 2.583-1.101h125.019s1.594-.391 2.867.866c1.261 1.247.896 2.83.896 2.83v37.438s.062 1.405-1.063 2.488c-.932.897-2.081.833-2.081.834l-125.696-.023s-1.576.12-2.783-1.156c-.92-.973-.812-2.151-.812-2.151v-37.039m-.98-.566s-.049-1.584 1.243-2.963c1.25-1.334 2.779-1.393 2.779-1.393H850.62s1.648-.116 2.981 1.295c1.162 1.23 1.011 2.645 1.011 2.645v38.267s.048 1.592-1.22 2.867c-1.068 1.074-2.395 1.074-2.395 1.074H724.226c-.001 0-1.529.039-2.777-1.206-1.31-1.307-1.262-2.915-1.262-2.916v-37.67ZM594.129 188.683h114.462s.45-.05.46.378c.009.44-.46.407-.46.407H594.129s-.391.088-.444-.304c-.065-.478.444-.481.444-.481ZM594.129 181.302h114.462s.45-.049.46.378c.009.441-.46.407-.46.408H594.129c0-.001-.391.088-.444-.304-.065-.478.444-.482.444-.482ZM594.129 196.764h114.462s.45-.049.46.378c.009.441-.46.407-.46.407H594.129s-.391.088-.444-.304c-.065-.477.444-.481.444-.481Z"/><path fill="#002654" fill-rule="evenodd" d="M726.689 174.101h119.634c0 .001.45-.049.459.378.01.441-.459.407-.459.408H726.689c0-.001-.39.088-.444-.304-.065-.478.444-.481.444-.482ZM726.689 166.721h119.634s.45-.049.459.378c.01.441-.459.407-.459.407H726.689s-.39.089-.444-.304c-.065-.477.444-.481.444-.481ZM726.689 188.683h119.634s.45-.05.459.378c.01.44-.459.407-.459.407H726.689s-.39.088-.444-.304c-.065-.478.444-.481.444-.481ZM726.689 181.302h119.634s.45-.049.459.378c.01.441-.459.407-.459.408H726.689c0-.001-.39.088-.444-.304-.065-.478.444-.482.444-.482ZM726.689 196.764h119.634s.45-.049.459.378c.01.441-.459.407-.459.407H726.689s-.39.088-.444-.304c-.065-.477.444-.481.444-.481Z"/><g fill="#fff" fill-rule="evenodd"><path d="M78.569 42.42c.856-4.815 12.492-10.691 29.295.907 13.154 9.079 12.683 19.729 9.069 22.279-3.083 2.175-5.053-4.751-16.711-11.912-13.867-8.519-22.365-7.263-21.653-11.274ZM240.305 120.332l-28.641-26.341-57.227 35.074 44.752-16.568 10.529 16.568 10.672-10.406 19.915 1.673ZM141.55 137.908c-.013.008-133.164 79.711-133.178 79.718l-.312 14.069 133.49-93.787ZM343.28 80.965l-53.646 39.597 42.114-20.526 11.314 14.904.218-33.975Z"/></g></svg>